HIERARCHY
ROOT Hips
{
  OFFSET 1.44925e-005 102.336 -0.101585
  CHANNELS 6 Xposition Yposition Zposition Zrotation Xrotation Yrotation
  JOINT LeftUpLeg
  {
    OFFSET 8.9458 -8.66707 0.101652
    CHANNELS 3 Zrotation Xrotation Yrotation
    JOINT LeftLeg
    {
      OFFSET 0 -44.4227 1.3727
      CHANNELS 3 Zrotation Xrotation Yrotation
      JOINT LeftFoot
      {
        OFFSET -0.253549 -42.0924 -1.46059
        CHANNELS 3 Zrotation Xrotation Yrotation
        JOINT LeftToes
        {
          OFFSET -0.04 -4.41509 8.4991
          CHANNELS 3 Zrotation Xrotation Yrotation
          End Site
          {
            OFFSET 0.08 -0.047448 9.77979
          }
        }
      }
    }
  }
  JOINT Spine
  {
    OFFSET 0 11.8905 0
    CHANNELS 3 Zrotation Xrotation Yrotation
    JOINT Spine1
    {
      OFFSET 0 25.6574 0.127663
      CHANNELS 3 Zrotation Xrotation Yrotation
      JOINT RightShoulder
      {
        OFFSET -8.99 -0.362252 -0.22
        CHANNELS 3 Zrotation Xrotation Yrotation
        JOINT RightArm
        {
          OFFSET -10.2827 -0.00338 0.322123
          CHANNELS 3 Zrotation Xrotation Yrotation
          JOINT RightForeArm
          {
            OFFSET -26.364 0.099144 -1.42434
            CHANNELS 3 Zrotation Xrotation Yrotation
            JOINT RightHand
            {
              OFFSET -22.0324 0.085362 1.02216
              CHANNELS 3 Zrotation Xrotation Yrotation
              End Site
              {
                OFFSET -13.3284 -0.6 1.50291
              }
            }
          }
        }
      }
      JOINT LeftShoulder1
      {
        OFFSET 8.99 -0.362252 -0.22
        CHANNELS 3 Zrotation Xrotation Yrotation
        JOINT LeftArm
        {
          OFFSET 10.2827 -0.00337999 0.322123
          CHANNELS 3 Zrotation Xrotation Yrotation
          JOINT LeftForeArm
          {
            OFFSET 26.2597 0.099144 -1.42434
            CHANNELS 3 Zrotation Xrotation Yrotation
            JOINT LeftHand
            {
              OFFSET 22.0902 0.085362 1.02216
              CHANNELS 3 Zrotation Xrotation Yrotation
              End Site
              {
                OFFSET 13.419 -0.6 1.50291
              }
            }
          }
        }
      }
      JOINT Head
      {
        OFFSET 0 8.73416 0.011341
        CHANNELS 3 Zrotation Xrotation Yrotation
        End Site
        {
          OFFSET -0.29 12.7742 2.51395
        }
      }
    }
  }
  JOINT RightUpLeg
  {
    OFFSET -8.9458 -8.66707 0.101652
    CHANNELS 3 Zrotation Xrotation Yrotation
    JOINT RightLeg
    {
      OFFSET 0 -44.4227 1.3727
      CHANNELS 3 Zrotation Xrotation Yrotation
      JOINT RightFoot
      {
        OFFSET 0.253549 -42.0924 -1.46059
        CHANNELS 3 Zrotation Xrotation Yrotation
        JOINT RightToes
        {
          OFFSET 0.04 -4.41509 8.4991
          CHANNELS 3 Zrotation Xrotation Yrotation
          End Site
          {
            OFFSET -0.08 -0.137448 9.77979
          }
        }
      }
    }
  }
}
MOTION
Frames:	14
Frame Time:	0.0333333
190.952 103.07 3.55038 -4.11934 -0.00548935 -89.8796 -0.55196 3.63642 2.74488 -0.0946495 8.7339 19.3156 -2.80252 -11.9447 -0.0411149 -1.30239e-009 8.75239e-006 -1.47668e-008 1.26383 9.65892 0.23154 -1.21283 -2.00198 0.604845 36.649 1.71728 -0.00921095 42.744 -15.3625 9.33623 7.52897 38.6721 9.28216 -10.2413 9.45339 0.0159363 -44.8616 3.64722 -3.58354 -27.5409 -12.8853 3.27656 -2.37473 31.1931 -17.9453 5.82328 9.61819 -0.917488 0.78926 -4.00159 -5.17771 0.12874 3.29865 -3.84054 0.311259 9.07446 -11.5387 2.67962 -12.5899 -0.0849868 0.0462048 0.000530889 0.662642 
190.977 103.073 3.53997 -4.13392 -2.52902e-016 -90 -0.554122 3.6981 2.75825 -0.0934395 8.61228 19.3408 -2.76741 -11.8946 -0.0411073 -1.30239e-009 8.75239e-006 -1.47668e-008 1.30838 9.64892 0.248455 -1.27268 -2.00632 0.623629 36.6552 1.71728 -0.00921095 42.7589 -15.5644 9.35987 7.6391 38.7645 9.09436 -10.2003 9.47602 -0.243151 -44.8316 3.64944 -3.58355 -27.5549 -12.8846 3.33773 -2.36462 31.2595 -17.9383 5.82328 9.61819 -0.917488 0.81638 -4.47867 -5.24186 0.134169 3.29702 -3.82409 0.305996 9.05948 -11.506 2.66047 -12.5726 -0.084981 0.0462048 0.000530889 0.662642 
191.024 103.081 3.51665 -4.14043 -2.533e-016 -90 -0.547699 3.77728 2.79473 -0.0944193 8.40714 19.3585 -2.71487 -11.7952 -0.0410923 -1.30239e-009 8.75239e-006 -1.47668e-008 1.28278 9.50765 0.321228 -1.20779 -1.84948 0.645761 36.6587 1.71728 -0.00950375 42.6807 -15.7785 9.41546 7.84983 38.6677 8.80504 -10.3735 9.51704 -0.843294 -44.9766 3.66196 -3.5836 -27.399 -12.8754 3.37294 -2.39821 31.3415 -17.8788 5.82328 9.61819 -0.917488 0.724732 -5.18153 -5.4245 0.140751 3.28525 -3.79355 0.316739 9.02975 -11.4536 2.64725 -12.5409 -0.0849705 0.0462048 0.000530889 0.662642 
191.072 103.091 3.49356 -4.14327 -2.53473e-016 -90 -0.56983 3.84253 2.73972 -0.0702779 8.21358 19.3724 -2.69424 -11.6877 -0.0409802 -1.30239e-009 8.75239e-006 -1.47668e-008 1.20686 9.24611 0.347925 -1.06837 -1.5133 0.662788 36.663 1.71728 -0.0127714 42.5549 -15.9706 9.47236 8.05385 38.4327 8.55262 -10.6373 9.55124 -1.38384 -45.1783 3.67966 -3.58183 -27.1673 -12.9528 3.27909 -2.51842 31.5023 -17.6966 5.82328 9.61819 -0.917488 0.600735 -5.78942 -5.5186 0.125422 3.26577 -3.83358 0.335319 9.01702 -11.4287 2.63423 -12.5194 -0.0849635 0.0462048 0.000530889 0.662642 
191.119 103.098 3.47418 -4.17144 -0.0928444 -89.9056 -0.653955 3.89479 2.64901 -0.0189354 8.09394 19.3778 -2.71966 -11.6048 -0.0403718 -1.30239e-009 8.75239e-006 -1.47668e-008 1.14298 9.0998 0.329986 -1.0242 -1.28813 0.666567 36.6309 1.71728 -0.0205381 42.5524 -16.3356 9.47383 8.17513 38.5923 8.31637 -10.6113 9.55109 -1.36722 -45.1909 3.675 -3.57194 -27.1132 -12.9767 3.15835 -2.7023 31.5548 -17.475 5.82328 9.61819 -0.917488 0.600338 -6.03781 -5.36942 0.0760647 3.2752 -3.86399 0.327722 9.00918 -11.487 2.6239 -12.4946 -0.0849553 0.0462048 0.000530889 0.662642 
191.184 103.103 3.44967 -4.2053 -0.0984267 -89.8469 -0.661158 3.8975 2.62673 0.0106512 8.06649 19.3491 -2.75551 -11.5495 -0.0394857 -1.30239e-009 8.75239e-006 -1.47668e-008 1.17356 9.21028 0.310311 -1.051 -1.39797 0.648392 36.5234 1.71728 -0.01903 42.6792 -16.7993 9.38362 8.20189 39.2343 8.10279 -10.3072 9.52306 -0.887699 -45.0746 3.65904 -3.55901 -27.2328 -12.7223 3.18102 -2.86067 31.246 -17.3929 5.82328 9.61819 -0.917488 0.726149 -5.99535 -4.97748 0.1053 3.28293 -3.82154 0.300226 8.98536 -11.6083 2.66465 -12.437 -0.0849364 0.0462048 0.000530889 0.662642 
191.267 103.107 3.41988 -4.19824 -0.103395 -89.8443 -0.633723 3.83196 2.65112 -0.0104275 8.07743 19.3147 -2.76052 -11.5041 -0.0383943 -1.30239e-009 8.75239e-006 -1.47668e-008 1.17184 9.39205 0.295017 -1.01021 -1.65045 0.621381 36.372 1.71728 -0.00475334 42.7604 -17.026 9.23409 8.17472 39.7135 8.0185 -10.1314 9.50539 -0.57849 -45.0745 3.66051 -3.55943 -27.29 -12.3559 3.32924 -2.90851 30.8267 -17.472 5.82328 9.61819 -0.917488 0.801424 -5.97099 -4.67304 0.122545 3.21988 -3.7981 0.309198 8.97714 -11.6666 2.76835 -12.3685 -0.0849141 0.0462048 0.000530889 0.662642 
191.338 103.109 3.3987 -4.17292 -0.122073 -89.8933 -0.627998 3.77757 2.6681 -0.0456382 8.04972 19.3446 -2.74405 -11.4628 -0.0371723 -1.30239e-009 8.75239e-006 -1.47668e-008 1.12584 9.41476 0.312388 -0.901004 -1.71434 0.615973 36.2461 1.71728 0.0102246 42.7236 -16.9627 9.10705 8.17083 39.5974 8.04947 -10.2522 9.51493 -0.758513 -45.2146 3.67682 -3.5594 -27.197 -12.2674 3.44563 -2.83686 30.8015 -17.5652 5.82328 9.61819 -0.917488 0.691676 -6.36017 -4.96415 0.0766981 3.1201 -3.85501 0.372847 9.01593 -11.5799 2.85812 -12.3407 -0.0847442 0.0462048 0.000530889 0.662642 
191.384 103.111 3.39321 -4.1968 -0.15458 -89.9513 -0.666861 3.80812 2.64859 -0.0535434 7.99143 19.4312 -2.74951 -11.4373 -0.0358961 -1.30239e-009 8.75239e-006 -1.47668e-008 1.10009 9.36496 0.342639 -0.837603 -1.62841 0.637054 36.1901 1.71728 0.0158537 42.6528 -16.9441 9.04804 8.25574 39.2878 7.99501 -10.4355 9.53381 -1.08273 -45.3154 3.68424 -3.55965 -27.0992 -12.4391 3.49138 -2.72265 31.1157 -17.5992 5.82328 9.61819 -0.917488 0.51095 -7.19301 -5.71171 0.00386827 3.08939 -3.94273 0.423081 9.06557 -11.4493 2.87446 -12.3467 -0.0841298 0.0462048 0.000530889 0.662642 
191.431 103.112 3.39705 -4.25333 -0.175871 -89.9838 -0.701395 3.84537 2.62414 -0.0433128 7.9888 19.4913 -2.78416 -11.4307 -0.0346414 -1.30239e-009 8.75239e-006 -1.47668e-008 1.14141 9.44912 0.349252 -0.865767 -1.67438 0.653648 36.2412 1.71728 0.0158021 42.5538 -17.1239 9.03265 8.39168 39.3155 7.7855 -10.508 9.53885 -1.16825 -45.3049 3.67964 -3.5604 -27.1088 -12.528 3.54803 -2.65435 31.284 -17.6249 5.82328 9.61819 -0.917488 0.535235 -7.6098 -5.86918 -0.0150923 3.10945 -3.95284 0.39944 9.08825 -11.4255 2.86399 -12.3326 -0.0835347 0.0462048 0.000530889 0.662642 
191.499 103.112 3.40735 -4.25782 -0.172525 -90.0089 -0.707094 3.77994 2.60916 -0.0404632 8.05073 19.5253 -2.80578 -11.4307 -0.0334815 -1.30239e-009 8.75239e-006 -1.47668e-008 1.25691 9.58626 0.321347 -0.966448 -1.83158 0.648731 36.4125 1.71728 0.0132504 42.3522 -17.2504 9.04056 8.47765 39.5422 7.6125 -10.5527 9.53335 -1.10727 -45.2496 3.67452 -3.56228 -27.1799 -12.504 3.60137 -2.66331 31.211 -17.635 5.82328 9.61819 -0.917488 0.903654 -7.26291 -4.82761 0.0121294 3.05028 -3.88938 0.338985 9.12195 -11.4675 2.88229 -12.2982 -0.0829352 0.0462048 0.000530889 0.662642 
191.571 103.109 3.42777 -4.21213 -0.174321 -90.0751 -0.725697 3.68352 2.58304 -0.0471908 8.06356 19.6324 -2.79017 -11.4297 -0.0324907 -1.30239e-009 8.75239e-006 -1.47668e-008 1.43007 9.55933 0.285488 -1.13715 -1.81059 0.650964 36.6177 1.71767 0.00732828 42.136 -17.1838 9.10811 8.48985 39.5819 7.59677 -10.6079 9.5306 -1.12232 -45.1818 3.67015 -3.564 -27.2439 -12.6435 3.55111 -2.71516 31.2417 -17.56 5.82328 9.61819 -0.917488 1.29335 -6.58415 -3.45155 0.00531473 2.90171 -3.8569 0.306184 9.21144 -11.4058 2.90671 -12.2951 -0.082324 0.0462048 0.000530889 0.662642 
191.628 103.1 3.45315 -4.19972 -0.181395 -90.2094 -0.766143 3.68711 2.55723 -0.0554487 7.97787 19.816 -2.76996 -11.428 -0.0317444 -1.30239e-009 8.75239e-006 -1.47668e-008 1.62014 9.44538 0.270261 -1.35288 -1.61464 0.685086 36.7415 1.71906 -0.00158481 42.0832 -17.1216 9.25313 8.49848 39.4986 7.6074 -10.5813 9.53287 -1.13609 -45.0922 3.6596 -3.55719 -27.2988 -12.952 3.42163 -2.73934 31.5158 -17.4415 5.82328 9.61819 -0.917488 1.41326 -6.32945 -2.88451 -0.0347984 2.78286 -3.86634 0.288606 9.32479 -11.2384 2.9199 -12.3205 -0.0816762 0.0462048 0.000530889 0.662642 
191.685 103.094 3.47253 -4.21603 -0.162918 -90.3538 -0.774504 3.71893 2.55887 -0.0580458 7.90625 19.9472 -2.78022 -11.425 -0.0313175 -1.30239e-009 8.75239e-006 -1.47668e-008 1.78207 9.48928 0.262379 -1.53363 -1.57006 0.716976 36.8053 1.72065 -0.00778816 42.1403 -17.1352 9.40395 8.52088 39.5495 7.57142 -10.4919 9.52221 -0.965725 -44.9997 3.64795 -3.54867 -27.3658 -13.1434 3.34 -2.69675 31.8311 -17.3949 5.82328 9.61819 -0.917488 1.38332 -6.6292 -3.05776 -0.0285371 2.70338 -3.82592 0.251068 9.41638 -11.1385 2.95093 -12.3184 -0.0809505 0.0462048 0.000530889 0.662642 
